# xmcd CD database file
#
# Track frame offsets:
#	150
#	12707
#	34095
#	56402
#	73370
#	87732
#	104942
#	121635
#	141115
#	164737
#
# Disc length: 2380 seconds
#
# Revision: 0
# Processed by: cddbd v1.5.2PL0 Copyright (c) Steve Scherf et al.
# Submitted via: CDex 1.70beta2
#
DISCID=9a094a0a
DTITLE=The Dorian Michael Blues Ensemble - Wheel of Fortune
DYEAR=1900
DGENRE=Blues
TTITLE0=Rooms On Fire
TTITLE1=My Own Backyard
TTITLE2=Wheel Of Fortune
TTITLE3=Funk in F
TTITLE4=San Joaquin Swing
TTITLE5=All Dressed Up
TTITLE6=El Camino
TTITLE7=Oakdale Shuffle
TTITLE8=Dusk 'Til Dawn
TTITLE9=Free Spin
EXTD=
EXTT0=
EXTT1=
EXTT2=
EXTT3=
EXTT4=
EXTT5=
EXTT6=
EXTT7=
EXTT8=
EXTT9=
PLAYORDER=
